<?xml version="1.0" encoding="UTF-8"?>
<svg width="16px" height="16px" viewBox="0 0 16 16" version="1.1" xmlns="http://www.w3.org/2000/svg" xmlns:xlink="http://www.w3.org/1999/xlink">
    <title>提示</title>
    <defs>
        <filter id="filter-1">
            <feColorMatrix in="SourceGraphic" type="matrix" values="0 0 0 0 0.862745 0 0 0 0 0.443137 0 0 0 0 0.203922 0 0 0 0.800000 0"></feColorMatrix>
        </filter>
        <rect id="path-2" x="0" y="0" width="16" height="16"></rect>
        <polygon id="path-4" points="0.000286410256 0 13.9997136 0 13.9997136 14 0.000286410256 14"></polygon>
    </defs>
    <g id="页面-1" stroke="none" stroke-width="1" fill="none" fill-rule="evenodd">
        <g id="提示" transform="translate(-20.000000, -97.000000)" filter="url(#filter-1)">
            <g transform="translate(20.000000, 97.000000)">
                <mask id="mask-3" fill="white">
                    <use xlink:href="#path-2"></use>
                </mask>
                <g id="蒙版"></g>
                <g id="编组" mask="url(#mask-3)">
                    <g transform="translate(1.000000, 1.000000)">
                        <mask id="mask-5" fill="white">
                            <use xlink:href="#path-4"></use>
                        </mask>
                        <g id="Clip-2" stroke="none" fill="none"></g>
                        <path d="M7,11.5 C6.586,11.5 6.25,11.164 6.25,10.75 C6.25,10.336 6.586,10 7,10 C7.414,10 7.75,10.336 7.75,10.75 C7.75,11.164 7.414,11.5 7,11.5 L7,11.5 Z M6.5,4.5 C6.5,4.225 6.725,4 7,4 C7.275,4 7.5,4.225 7.5,4.5 L7.5,8.5 C7.5,8.775 7.275,9 7,9 C6.725,9 6.5,8.775 6.5,8.5 L6.5,4.5 Z M13.882,12.473 L7.855,0.545 C7.488,-0.182 6.512,-0.182 6.145,0.545 L0.118,12.473 C-0.231,13.163 0.238,14 0.973,14 L13.027,14 C13.762,14 14.231,13.163 13.882,12.473 L13.882,12.473 Z" id="Fill-1" stroke="none" fill="#979797" fill-rule="evenodd" mask="url(#mask-5)"></path>
                    </g>
                </g>
            </g>
        </g>
    </g>
</svg>