<?xml version="1.0" encoding="UTF-8"?>
<svg width="16px" height="16px" viewBox="0 0 16 16" version="1.1" xmlns="http://www.w3.org/2000/svg" xmlns:xlink="http://www.w3.org/1999/xlink">
    <title>通知类</title>
    <defs>
        <rect id="path-1" x="0" y="0" width="16" height="16"></rect>
        <polygon id="path-3" points="0 0 9 0 9 14 0 14"></polygon>
        <polygon id="path-5" points="0.4904425 0.167000751 4 0.167000751 4 9.8369 0.4904425 9.8369"></polygon>
    </defs>
    <g id="页面-1" stroke="none" stroke-width="1" fill="none" fill-rule="evenodd">
        <g id="预约问诊-待接" transform="translate(-20.000000, -97.000000)">
            <g id="通知类" transform="translate(20.000000, 97.000000)">
                <mask id="mask-2" fill="white">
                    <use xlink:href="#path-1"></use>
                </mask>
                <g id="蒙版"></g>
                <g id="编组" mask="url(#mask-2)">
                    <g transform="translate(1.000000, 1.000000)">
                        <g id="编组" stroke-width="1" fill="none">
                            <mask id="mask-4" fill="white">
                                <use xlink:href="#path-3"></use>
                            </mask>
                            <g id="Clip-2"></g>
                            <path d="M3,3.2471 L0.504,3.2471 C0.226,3.2471 0,3.4581 0,3.7201 L0,10.2801 C0,10.5421 0.226,10.7531 0.504,10.7531 L3,10.7531 L8.187,13.8961 C8.514,14.1431 9,13.9231 9,13.5291 L9,0.4711 C9,0.0771 8.514,-0.1429 8.187,0.1031 L3,3.2471 Z" id="Fill-1" fill-opacity="0.8" fill="#438CD9" mask="url(#mask-4)"></path>
                        </g>
                        <path d="M10.0093,10.0938 C9.8373,10.0938 9.6703,10.0048 9.5773,9.8458 C9.4383,9.6078 9.5183,9.3008 9.7573,9.1618 C10.5233,8.7138 11.0003,7.8858 11.0003,6.9998 C11.0003,6.1148 10.5233,5.2858 9.7573,4.8378 C9.5183,4.6988 9.4383,4.3928 9.5773,4.1548 C9.7163,3.9158 10.0233,3.8328 10.2603,3.9748 C11.3333,4.6008 12.0003,5.7598 12.0003,6.9998 C12.0003,8.2398 11.3333,9.3998 10.2603,10.0258 C10.1813,10.0728 10.0943,10.0938 10.0093,10.0938" id="Fill-3" fill-opacity="0.8" fill="#438CD9"></path>
                        <g id="编组" stroke-width="1" fill="none" transform="translate(10.000000, 2.000000)">
                            <mask id="mask-6" fill="white">
                                <use xlink:href="#path-5"></use>
                            </mask>
                            <g id="Clip-6"></g>
                            <path d="M0.9912,9.8369 C0.8182,9.8369 0.6502,9.7469 0.5572,9.5859 C0.4192,9.3469 0.5022,9.0409 0.7412,8.9029 C2.1342,8.1019 3.0002,6.6059 3.0002,4.9999 C3.0002,3.3979 2.1372,1.9029 0.7482,1.1009 C0.5092,0.9629 0.4272,0.6569 0.5652,0.4179 C0.7042,0.1789 1.0092,0.0949 1.2482,0.2349 C2.9462,1.2159 4.0002,3.0419 4.0002,4.9999 C4.0002,6.9619 2.9422,8.7899 1.2402,9.7709 C1.1612,9.8159 1.0752,9.8369 0.9912,9.8369" id="Fill-5" fill-opacity="0.8" fill="#438CD9" mask="url(#mask-6)"></path>
                        </g>
                    </g>
                </g>
            </g>
        </g>
    </g>
</svg>