<?xml version="1.0" encoding="UTF-8"?>
<svg width="30px" height="30px" viewBox="0 0 30 30" version="1.1" xmlns="http://www.w3.org/2000/svg" xmlns:xlink="http://www.w3.org/1999/xlink">
    <title>点击商城</title>
    <defs>
        <rect id="path-1" x="0" y="0" width="30" height="30"></rect>
    </defs>
    <g id="页面-2" stroke="none" stroke-width="1" fill="none" fill-rule="evenodd">
        <g id="画板" transform="translate(-143.000000, -99.000000)">
            <g id="点击商城" transform="translate(143.000000, 99.000000)">
                <mask id="mask-2" fill="white">
                    <use xlink:href="#path-1"></use>
                </mask>
                <g id="蒙版"></g>
                <g id="编组" mask="url(#mask-2)">
                    <g transform="translate(4.000000, 4.000000)">
                        <path d="M18.0491,16.75 L7.7131,16.75 C6.4651,16.75 5.4891,15.672 5.6131,14.43 L6.6911,3.65 C6.7991,2.571 7.7071,1.75 8.7911,1.75 L16.9711,1.75 C18.0551,1.75 18.9631,2.571 19.0711,3.65 L20.1491,14.43 C20.2731,15.672 19.2981,16.75 18.0491,16.75" id="Fill-1" stroke="none" fill="#3DCCA4" fill-rule="evenodd"></path>
                        <path d="M17.346,20.75 L3.564,20.75 C1.899,20.75 0.598,19.313 0.764,17.656 L2.201,3.284 C2.346,1.845 3.555,0.75 5.001,0.75 L15.909,0.75 C17.354,0.75 18.564,1.845 18.708,3.284 L20.145,17.656" id="Stroke-3" stroke="#464646" stroke-width="1.5" fill="none" stroke-linecap="round" stroke-linejoin="round"></path>
                        <path d="M14.4549,5.75 L14.4549,5.75 C14.4549,7.4 12.6549,8.75 10.4549,8.75 C8.2549,8.75 6.4549,7.4 6.4549,5.75" id="Stroke-5" stroke="#464646" stroke-width="1.5" fill="none" stroke-linecap="round" stroke-linejoin="round"></path>
                    </g>
                </g>
            </g>
        </g>
    </g>
</svg>